<svg width="30" height="30" viewBox="0 0 30 30" fill="none" xmlns="http://www.w3.org/2000/svg">
<g clip-path="url(#clip0_137_21)">
<path fill-rule="evenodd" clip-rule="evenodd" d="M0 15C0 23.2843 6.71573 30 15 30C23.2843 30 30 23.2843 30 15C30 6.71573 23.2843 0 15 0C6.71573 0 0 6.71573 0 15ZM12.25 21.8751L12.5052 18.0515L12.505 18.0514L19.4606 11.7745C19.7658 11.5036 19.3939 11.3715 18.9887 11.6172L10.4045 17.0328L6.69667 15.8755C5.89594 15.6304 5.89019 15.0801 6.87645 14.6845L21.3252 9.11316C21.9851 8.81356 22.622 9.27166 22.3701 10.2817L19.9095 21.8771C19.7377 22.701 19.2398 22.8981 18.55 22.5175L14.8017 19.7482L13 21.5001C12.9943 21.5056 12.9887 21.5112 12.983 21.5166C12.7815 21.7128 12.6148 21.8751 12.25 21.8751Z" fill="#2F3035"/>
</g>
<defs>
<clipPath id="clip0_137_21">
<rect width="30" height="30" fill="white"/>
</clipPath>
</defs>
</svg>
